<mxfile host="Electron" agent="Mozilla/5.0 (Windows NT 10.0; Win64; x64) AppleWebKit/537.36 (KHTML, like Gecko) draw.io/25.0.1 Chrome/128.0.6613.186 Electron/32.2.6 Safari/537.36" version="25.0.1">
  <diagram name="Pagina-1" id="NVLKxcskNnM8FUozMXqg">
    <mxGraphModel dx="2690" dy="631" grid="1" gridSize="10" guides="1" tooltips="1" connect="1" arrows="1" fold="1" page="1" pageScale="1" pageWidth="1654" pageHeight="1169" math="0" shadow="0">
      <root>
        <mxCell id="0" />
        <mxCell id="1" parent="0" />
        <mxCell id="M-aQ_FlE0nt4G0UNCH_q-1" value="" style="shape=mxgraph.cisco.misc.7500ars_(7513);sketch=0;html=1;pointerEvents=1;dashed=0;fillColor=#036897;strokeColor=#ffffff;strokeWidth=2;verticalLabelPosition=bottom;verticalAlign=top;align=center;outlineConnect=0;" parent="1" vertex="1">
          <mxGeometry x="790" y="470" width="78" height="78" as="geometry" />
        </mxCell>
        <mxCell id="M-aQ_FlE0nt4G0UNCH_q-2" value="" style="shape=mxgraph.cisco.hubs_and_gateways.small_hub;sketch=0;html=1;pointerEvents=1;dashed=0;fillColor=#036897;strokeColor=#ffffff;strokeWidth=2;verticalLabelPosition=bottom;verticalAlign=top;align=center;outlineConnect=0;" parent="1" vertex="1">
          <mxGeometry x="540" y="486.5" width="90" height="45" as="geometry" />
        </mxCell>
        <mxCell id="M-aQ_FlE0nt4G0UNCH_q-3" value="" style="shape=mxgraph.cisco.hubs_and_gateways.small_hub;sketch=0;html=1;pointerEvents=1;dashed=0;fillColor=#036897;strokeColor=#ffffff;strokeWidth=2;verticalLabelPosition=bottom;verticalAlign=top;align=center;outlineConnect=0;" parent="1" vertex="1">
          <mxGeometry x="1070" y="486.5" width="90" height="45" as="geometry" />
        </mxCell>
        <mxCell id="ILVK8j65E4kL8cAka4Vf-2" value="" style="shape=mxgraph.cisco.computers_and_peripherals.pc;sketch=0;html=1;pointerEvents=1;dashed=0;fillColor=#036897;strokeColor=#ffffff;strokeWidth=2;verticalLabelPosition=bottom;verticalAlign=top;align=center;outlineConnect=0;" parent="1" vertex="1">
          <mxGeometry x="20" y="130" width="78" height="70" as="geometry" />
        </mxCell>
        <mxCell id="ILVK8j65E4kL8cAka4Vf-4" value="" style="shape=mxgraph.cisco.computers_and_peripherals.pc;sketch=0;html=1;pointerEvents=1;dashed=0;fillColor=#036897;strokeColor=#ffffff;strokeWidth=2;verticalLabelPosition=bottom;verticalAlign=top;align=center;outlineConnect=0;" parent="1" vertex="1">
          <mxGeometry x="20" y="310" width="78" height="70" as="geometry" />
        </mxCell>
        <mxCell id="ILVK8j65E4kL8cAka4Vf-5" value="" style="shape=mxgraph.cisco.computers_and_peripherals.pc;sketch=0;html=1;pointerEvents=1;dashed=0;fillColor=#036897;strokeColor=#ffffff;strokeWidth=2;verticalLabelPosition=bottom;verticalAlign=top;align=center;outlineConnect=0;" parent="1" vertex="1">
          <mxGeometry x="20" y="390" width="78" height="70" as="geometry" />
        </mxCell>
        <mxCell id="ILVK8j65E4kL8cAka4Vf-6" value="" style="shape=mxgraph.cisco.computers_and_peripherals.pc;sketch=0;html=1;pointerEvents=1;dashed=0;fillColor=#036897;strokeColor=#ffffff;strokeWidth=2;verticalLabelPosition=bottom;verticalAlign=top;align=center;outlineConnect=0;" parent="1" vertex="1">
          <mxGeometry x="20" y="474" width="78" height="70" as="geometry" />
        </mxCell>
        <mxCell id="ILVK8j65E4kL8cAka4Vf-7" value="" style="shape=mxgraph.cisco.computers_and_peripherals.pc;sketch=0;html=1;pointerEvents=1;dashed=0;fillColor=#036897;strokeColor=#ffffff;strokeWidth=2;verticalLabelPosition=bottom;verticalAlign=top;align=center;outlineConnect=0;" parent="1" vertex="1">
          <mxGeometry x="20" y="560" width="78" height="70" as="geometry" />
        </mxCell>
        <mxCell id="ILVK8j65E4kL8cAka4Vf-8" value="" style="shape=mxgraph.cisco.computers_and_peripherals.pc;sketch=0;html=1;pointerEvents=1;dashed=0;fillColor=#036897;strokeColor=#ffffff;strokeWidth=2;verticalLabelPosition=bottom;verticalAlign=top;align=center;outlineConnect=0;" parent="1" vertex="1">
          <mxGeometry x="20" y="40" width="78" height="70" as="geometry" />
        </mxCell>
        <mxCell id="ILVK8j65E4kL8cAka4Vf-9" style="edgeStyle=orthogonalEdgeStyle;rounded=0;orthogonalLoop=1;jettySize=auto;html=1;exitX=0.5;exitY=1;exitDx=0;exitDy=0;exitPerimeter=0;" parent="1" source="M-aQ_FlE0nt4G0UNCH_q-3" target="M-aQ_FlE0nt4G0UNCH_q-3" edge="1">
          <mxGeometry relative="1" as="geometry" />
        </mxCell>
        <mxCell id="ILVK8j65E4kL8cAka4Vf-10" value="" style="shape=mxgraph.cisco.computers_and_peripherals.pc;sketch=0;html=1;pointerEvents=1;dashed=0;fillColor=#036897;strokeColor=#ffffff;strokeWidth=2;verticalLabelPosition=bottom;verticalAlign=top;align=center;outlineConnect=0;" parent="1" vertex="1">
          <mxGeometry x="20" y="650" width="78" height="70" as="geometry" />
        </mxCell>
        <mxCell id="ILVK8j65E4kL8cAka4Vf-13" value="" style="shape=mxgraph.cisco.computers_and_peripherals.pc;sketch=0;html=1;pointerEvents=1;dashed=0;fillColor=#036897;strokeColor=#ffffff;strokeWidth=2;verticalLabelPosition=bottom;verticalAlign=top;align=center;outlineConnect=0;" parent="1" vertex="1">
          <mxGeometry x="1520" y="40" width="78" height="70" as="geometry" />
        </mxCell>
        <mxCell id="ILVK8j65E4kL8cAka4Vf-14" value="" style="shape=mxgraph.cisco.computers_and_peripherals.pc;sketch=0;html=1;pointerEvents=1;dashed=0;fillColor=#036897;strokeColor=#ffffff;strokeWidth=2;verticalLabelPosition=bottom;verticalAlign=top;align=center;outlineConnect=0;" parent="1" vertex="1">
          <mxGeometry x="1520" y="130" width="78" height="70" as="geometry" />
        </mxCell>
        <mxCell id="ILVK8j65E4kL8cAka4Vf-15" value="" style="shape=mxgraph.cisco.computers_and_peripherals.pc;sketch=0;html=1;pointerEvents=1;dashed=0;fillColor=#036897;strokeColor=#ffffff;strokeWidth=2;verticalLabelPosition=bottom;verticalAlign=top;align=center;outlineConnect=0;" parent="1" vertex="1">
          <mxGeometry x="1520" y="220" width="78" height="70" as="geometry" />
        </mxCell>
        <mxCell id="ILVK8j65E4kL8cAka4Vf-16" value="" style="shape=mxgraph.cisco.computers_and_peripherals.pc;sketch=0;html=1;pointerEvents=1;dashed=0;fillColor=#036897;strokeColor=#ffffff;strokeWidth=2;verticalLabelPosition=bottom;verticalAlign=top;align=center;outlineConnect=0;" parent="1" vertex="1">
          <mxGeometry x="1520" y="320" width="78" height="70" as="geometry" />
        </mxCell>
        <mxCell id="ILVK8j65E4kL8cAka4Vf-17" value="" style="shape=mxgraph.cisco.computers_and_peripherals.pc;sketch=0;html=1;pointerEvents=1;dashed=0;fillColor=#036897;strokeColor=#ffffff;strokeWidth=2;verticalLabelPosition=bottom;verticalAlign=top;align=center;outlineConnect=0;" parent="1" vertex="1">
          <mxGeometry x="1520" y="410" width="78" height="70" as="geometry" />
        </mxCell>
        <mxCell id="ILVK8j65E4kL8cAka4Vf-18" value="" style="shape=mxgraph.cisco.computers_and_peripherals.pc;sketch=0;html=1;pointerEvents=1;dashed=0;fillColor=#036897;strokeColor=#ffffff;strokeWidth=2;verticalLabelPosition=bottom;verticalAlign=top;align=center;outlineConnect=0;" parent="1" vertex="1">
          <mxGeometry x="1520" y="500" width="78" height="70" as="geometry" />
        </mxCell>
        <mxCell id="ILVK8j65E4kL8cAka4Vf-19" value="" style="shape=mxgraph.cisco.computers_and_peripherals.pc;sketch=0;html=1;pointerEvents=1;dashed=0;fillColor=#036897;strokeColor=#ffffff;strokeWidth=2;verticalLabelPosition=bottom;verticalAlign=top;align=center;outlineConnect=0;" parent="1" vertex="1">
          <mxGeometry x="1520" y="590" width="78" height="70" as="geometry" />
        </mxCell>
        <mxCell id="ILVK8j65E4kL8cAka4Vf-20" value="" style="shape=mxgraph.cisco.computers_and_peripherals.pc;sketch=0;html=1;pointerEvents=1;dashed=0;fillColor=#036897;strokeColor=#ffffff;strokeWidth=2;verticalLabelPosition=bottom;verticalAlign=top;align=center;outlineConnect=0;" parent="1" vertex="1">
          <mxGeometry x="1520" y="680" width="78" height="70" as="geometry" />
        </mxCell>
        <mxCell id="ILVK8j65E4kL8cAka4Vf-21" value="" style="shape=mxgraph.cisco.computers_and_peripherals.pc;sketch=0;html=1;pointerEvents=1;dashed=0;fillColor=#036897;strokeColor=#ffffff;strokeWidth=2;verticalLabelPosition=bottom;verticalAlign=top;align=center;outlineConnect=0;" parent="1" vertex="1">
          <mxGeometry x="1520" y="770" width="78" height="70" as="geometry" />
        </mxCell>
        <mxCell id="ILVK8j65E4kL8cAka4Vf-52" value="" style="line;strokeWidth=2;html=1;" parent="1" vertex="1">
          <mxGeometry x="98" y="80" width="160" height="10" as="geometry" />
        </mxCell>
        <mxCell id="ILVK8j65E4kL8cAka4Vf-53" value="" style="line;strokeWidth=2;html=1;" parent="1" vertex="1">
          <mxGeometry x="98" y="170" width="160" height="10" as="geometry" />
        </mxCell>
        <mxCell id="ILVK8j65E4kL8cAka4Vf-54" value="" style="line;strokeWidth=2;html=1;" parent="1" vertex="1">
          <mxGeometry x="98" y="350" width="160" height="10" as="geometry" />
        </mxCell>
        <mxCell id="ILVK8j65E4kL8cAka4Vf-55" value="" style="line;strokeWidth=2;html=1;" parent="1" vertex="1">
          <mxGeometry x="98" y="440" width="160" height="10" as="geometry" />
        </mxCell>
        <mxCell id="ILVK8j65E4kL8cAka4Vf-56" value="" style="line;strokeWidth=2;html=1;" parent="1" vertex="1">
          <mxGeometry x="98" y="522" width="160" height="10" as="geometry" />
        </mxCell>
        <mxCell id="ILVK8j65E4kL8cAka4Vf-57" value="" style="line;strokeWidth=2;html=1;" parent="1" vertex="1">
          <mxGeometry x="98" y="600" width="160" height="10" as="geometry" />
        </mxCell>
        <mxCell id="ILVK8j65E4kL8cAka4Vf-58" value="" style="line;strokeWidth=2;html=1;" parent="1" vertex="1">
          <mxGeometry x="98" y="700" width="160" height="10" as="geometry" />
        </mxCell>
        <mxCell id="ILVK8j65E4kL8cAka4Vf-60" value="" style="line;strokeWidth=2;html=1;" parent="1" vertex="1">
          <mxGeometry x="98" y="260" width="160" height="10" as="geometry" />
        </mxCell>
        <mxCell id="ILVK8j65E4kL8cAka4Vf-61" value="" style="line;strokeWidth=2;html=1;" parent="1" vertex="1">
          <mxGeometry x="98" y="810" width="160" height="10" as="geometry" />
        </mxCell>
        <mxCell id="ILVK8j65E4kL8cAka4Vf-62" value="" style="shape=mxgraph.cisco.computers_and_peripherals.pc;sketch=0;html=1;pointerEvents=1;dashed=0;fillColor=#036897;strokeColor=#ffffff;strokeWidth=2;verticalLabelPosition=bottom;verticalAlign=top;align=center;outlineConnect=0;" parent="1" vertex="1">
          <mxGeometry x="20" y="220" width="78" height="70" as="geometry" />
        </mxCell>
        <mxCell id="ILVK8j65E4kL8cAka4Vf-63" value="" style="shape=mxgraph.cisco.computers_and_peripherals.pc;sketch=0;html=1;pointerEvents=1;dashed=0;fillColor=#036897;strokeColor=#ffffff;strokeWidth=2;verticalLabelPosition=bottom;verticalAlign=top;align=center;outlineConnect=0;" parent="1" vertex="1">
          <mxGeometry x="20" y="760" width="78" height="70" as="geometry" />
        </mxCell>
        <mxCell id="ILVK8j65E4kL8cAka4Vf-64" value="" style="line;strokeWidth=2;html=1;" parent="1" vertex="1">
          <mxGeometry x="1360" y="90" width="160" height="10" as="geometry" />
        </mxCell>
        <mxCell id="ILVK8j65E4kL8cAka4Vf-65" value="" style="line;strokeWidth=2;html=1;" parent="1" vertex="1">
          <mxGeometry x="1360" y="180" width="160" height="10" as="geometry" />
        </mxCell>
        <mxCell id="ILVK8j65E4kL8cAka4Vf-66" value="" style="line;strokeWidth=2;html=1;" parent="1" vertex="1">
          <mxGeometry x="1360" y="270" width="160" height="10" as="geometry" />
        </mxCell>
        <mxCell id="ILVK8j65E4kL8cAka4Vf-68" value="" style="line;strokeWidth=2;html=1;" parent="1" vertex="1">
          <mxGeometry x="1360" y="370" width="160" height="10" as="geometry" />
        </mxCell>
        <mxCell id="ILVK8j65E4kL8cAka4Vf-69" value="" style="line;strokeWidth=2;html=1;" parent="1" vertex="1">
          <mxGeometry x="1360" y="460" width="160" height="10" as="geometry" />
        </mxCell>
        <mxCell id="ILVK8j65E4kL8cAka4Vf-70" value="" style="line;strokeWidth=2;html=1;" parent="1" vertex="1">
          <mxGeometry x="1360" y="550" width="160" height="10" as="geometry" />
        </mxCell>
        <mxCell id="ILVK8j65E4kL8cAka4Vf-71" value="" style="line;strokeWidth=2;html=1;" parent="1" vertex="1">
          <mxGeometry x="1360" y="640" width="160" height="10" as="geometry" />
        </mxCell>
        <mxCell id="ILVK8j65E4kL8cAka4Vf-72" value="" style="line;strokeWidth=2;html=1;" parent="1" vertex="1">
          <mxGeometry x="1360" y="730" width="160" height="10" as="geometry" />
        </mxCell>
        <mxCell id="ILVK8j65E4kL8cAka4Vf-73" value="" style="line;strokeWidth=2;html=1;" parent="1" vertex="1">
          <mxGeometry x="1360" y="820" width="160" height="10" as="geometry" />
        </mxCell>
        <mxCell id="ILVK8j65E4kL8cAka4Vf-74" value="" style="line;strokeWidth=2;direction=south;html=1;" parent="1" vertex="1">
          <mxGeometry x="1350" y="90" width="10" height="160" as="geometry" />
        </mxCell>
        <mxCell id="ILVK8j65E4kL8cAka4Vf-77" value="" style="line;strokeWidth=2;direction=south;html=1;" parent="1" vertex="1">
          <mxGeometry x="1350" y="330" width="10" height="160" as="geometry" />
        </mxCell>
        <mxCell id="ILVK8j65E4kL8cAka4Vf-79" value="" style="line;strokeWidth=2;direction=south;html=1;" parent="1" vertex="1">
          <mxGeometry x="1350" y="220" width="10" height="160" as="geometry" />
        </mxCell>
        <mxCell id="ILVK8j65E4kL8cAka4Vf-80" value="" style="line;strokeWidth=2;direction=south;html=1;" parent="1" vertex="1">
          <mxGeometry x="1350" y="490" width="10" height="160" as="geometry" />
        </mxCell>
        <mxCell id="ILVK8j65E4kL8cAka4Vf-81" value="" style="line;strokeWidth=2;direction=south;html=1;" parent="1" vertex="1">
          <mxGeometry x="1350" y="640" width="10" height="160" as="geometry" />
        </mxCell>
        <mxCell id="ILVK8j65E4kL8cAka4Vf-82" value="" style="line;strokeWidth=2;direction=south;html=1;" parent="1" vertex="1">
          <mxGeometry x="1350" y="670" width="10" height="160" as="geometry" />
        </mxCell>
        <mxCell id="ILVK8j65E4kL8cAka4Vf-83" value="" style="line;strokeWidth=2;direction=south;html=1;" parent="1" vertex="1">
          <mxGeometry x="248" y="80" width="10" height="160" as="geometry" />
        </mxCell>
        <mxCell id="ILVK8j65E4kL8cAka4Vf-84" value="" style="line;strokeWidth=2;direction=south;html=1;" parent="1" vertex="1">
          <mxGeometry x="248" y="230" width="10" height="160" as="geometry" />
        </mxCell>
        <mxCell id="ILVK8j65E4kL8cAka4Vf-85" value="" style="line;strokeWidth=2;direction=south;html=1;" parent="1" vertex="1">
          <mxGeometry x="248" y="388" width="10" height="160" as="geometry" />
        </mxCell>
        <mxCell id="ILVK8j65E4kL8cAka4Vf-86" value="" style="line;strokeWidth=2;direction=south;html=1;" parent="1" vertex="1">
          <mxGeometry x="248" y="545" width="10" height="160" as="geometry" />
        </mxCell>
        <mxCell id="ILVK8j65E4kL8cAka4Vf-87" value="" style="line;strokeWidth=2;direction=south;html=1;" parent="1" vertex="1">
          <mxGeometry x="248" y="660" width="10" height="160" as="geometry" />
        </mxCell>
        <mxCell id="ILVK8j65E4kL8cAka4Vf-88" value="" style="line;strokeWidth=2;html=1;" parent="1" vertex="1">
          <mxGeometry x="248" y="512" width="160" height="10" as="geometry" />
        </mxCell>
        <mxCell id="ILVK8j65E4kL8cAka4Vf-89" value="" style="line;strokeWidth=2;html=1;" parent="1" vertex="1">
          <mxGeometry x="380" y="512" width="160" height="10" as="geometry" />
        </mxCell>
        <mxCell id="ILVK8j65E4kL8cAka4Vf-90" value="" style="line;strokeWidth=2;html=1;" parent="1" vertex="1">
          <mxGeometry x="630" y="504" width="160" height="10" as="geometry" />
        </mxCell>
        <mxCell id="ILVK8j65E4kL8cAka4Vf-91" value="" style="line;strokeWidth=2;html=1;" parent="1" vertex="1">
          <mxGeometry x="910" y="514" width="160" height="10" as="geometry" />
        </mxCell>
        <mxCell id="ILVK8j65E4kL8cAka4Vf-92" value="" style="line;strokeWidth=2;html=1;" parent="1" vertex="1">
          <mxGeometry x="880" y="514" width="160" height="10" as="geometry" />
        </mxCell>
        <mxCell id="ILVK8j65E4kL8cAka4Vf-93" value="" style="line;strokeWidth=2;html=1;" parent="1" vertex="1">
          <mxGeometry x="868" y="514" width="160" height="10" as="geometry" />
        </mxCell>
        <mxCell id="ILVK8j65E4kL8cAka4Vf-94" value="" style="line;strokeWidth=2;html=1;" parent="1" vertex="1">
          <mxGeometry x="1160" y="522" width="160" height="10" as="geometry" />
        </mxCell>
        <mxCell id="ILVK8j65E4kL8cAka4Vf-95" value="" style="line;strokeWidth=2;html=1;" parent="1" vertex="1">
          <mxGeometry x="1200" y="524" width="160" height="10" as="geometry" />
        </mxCell>
        <mxCell id="ILVK8j65E4kL8cAka4Vf-96" value="&lt;h1&gt;switch 1&lt;/h1&gt;" style="text;html=1;align=center;verticalAlign=middle;whiteSpace=wrap;rounded=0;" parent="1" vertex="1">
          <mxGeometry x="540" y="444" width="60" height="30" as="geometry" />
        </mxCell>
        <mxCell id="ILVK8j65E4kL8cAka4Vf-97" value="&lt;h1&gt;router 1&lt;/h1&gt;" style="text;html=1;align=center;verticalAlign=middle;whiteSpace=wrap;rounded=0;" parent="1" vertex="1">
          <mxGeometry x="797" y="420" width="60" height="30" as="geometry" />
        </mxCell>
        <mxCell id="ILVK8j65E4kL8cAka4Vf-98" value="&lt;h1&gt;switch 2&lt;/h1&gt;" style="text;html=1;align=center;verticalAlign=middle;whiteSpace=wrap;rounded=0;" parent="1" vertex="1">
          <mxGeometry x="1085" y="444" width="60" height="30" as="geometry" />
        </mxCell>
        <mxCell id="ILVK8j65E4kL8cAka4Vf-99" value="&lt;h1&gt;&lt;font&gt;pc 1&lt;/font&gt;&lt;/h1&gt;" style="text;html=1;align=center;verticalAlign=middle;whiteSpace=wrap;rounded=0;" parent="1" vertex="1">
          <mxGeometry x="-60" y="50" width="60" height="30" as="geometry" />
        </mxCell>
        <mxCell id="ILVK8j65E4kL8cAka4Vf-100" value="&lt;h1&gt;&lt;font&gt;pc 2&lt;/font&gt;&lt;/h1&gt;" style="text;html=1;align=center;verticalAlign=middle;whiteSpace=wrap;rounded=0;" parent="1" vertex="1">
          <mxGeometry x="-60" y="150" width="60" height="30" as="geometry" />
        </mxCell>
        <mxCell id="ILVK8j65E4kL8cAka4Vf-101" value="&lt;h1&gt;&lt;b&gt;&lt;font&gt;pc 3&lt;/font&gt;&lt;/b&gt;&lt;/h1&gt;" style="text;html=1;align=center;verticalAlign=middle;whiteSpace=wrap;rounded=0;" parent="1" vertex="1">
          <mxGeometry x="-60" y="250" width="60" height="30" as="geometry" />
        </mxCell>
        <mxCell id="ILVK8j65E4kL8cAka4Vf-102" value="&lt;h1&gt;pc 4&lt;/h1&gt;" style="text;html=1;align=center;verticalAlign=middle;whiteSpace=wrap;rounded=0;" parent="1" vertex="1">
          <mxGeometry x="-60" y="340" width="60" height="30" as="geometry" />
        </mxCell>
        <mxCell id="ILVK8j65E4kL8cAka4Vf-103" value="&lt;h1&gt;pc 5&lt;/h1&gt;" style="text;html=1;align=center;verticalAlign=middle;whiteSpace=wrap;rounded=0;" parent="1" vertex="1">
          <mxGeometry x="-60" y="420" width="60" height="30" as="geometry" />
        </mxCell>
        <mxCell id="ILVK8j65E4kL8cAka4Vf-104" value="&lt;h1&gt;pc 6&lt;/h1&gt;" style="text;html=1;align=center;verticalAlign=middle;whiteSpace=wrap;rounded=0;" parent="1" vertex="1">
          <mxGeometry x="-60" y="504" width="60" height="30" as="geometry" />
        </mxCell>
        <mxCell id="ILVK8j65E4kL8cAka4Vf-106" value="&lt;h1&gt;pc 7&lt;/h1&gt;" style="text;html=1;align=center;verticalAlign=middle;whiteSpace=wrap;rounded=0;" parent="1" vertex="1">
          <mxGeometry x="-60" y="590" width="60" height="30" as="geometry" />
        </mxCell>
        <mxCell id="ILVK8j65E4kL8cAka4Vf-107" value="&lt;h1&gt;pc 8&lt;/h1&gt;" style="text;html=1;align=center;verticalAlign=middle;whiteSpace=wrap;rounded=0;" parent="1" vertex="1">
          <mxGeometry x="-60" y="680" width="60" height="30" as="geometry" />
        </mxCell>
        <mxCell id="ILVK8j65E4kL8cAka4Vf-108" value="&lt;h1&gt;pc 9&lt;/h1&gt;" style="text;html=1;align=center;verticalAlign=middle;whiteSpace=wrap;rounded=0;" parent="1" vertex="1">
          <mxGeometry x="-60" y="780" width="60" height="30" as="geometry" />
        </mxCell>
        <mxCell id="ILVK8j65E4kL8cAka4Vf-109" value="&lt;ul&gt;&lt;li&gt;&lt;span style=&quot;background-color: initial;&quot;&gt;&lt;font style=&quot;font-size: 16px;&quot;&gt;192.16.0.11/24&lt;/font&gt;&lt;/span&gt;&lt;/li&gt;&lt;li&gt;&lt;span style=&quot;font-size: 16px;&quot;&gt;FE80::202:17FF:FEED:CBC&lt;/span&gt;&lt;/li&gt;&lt;li&gt;&lt;font style=&quot;font-size: 17px;&quot;&gt;&amp;nbsp;2001:DB8:ACAD:1:202:17FF:FEED:CBC&lt;/font&gt;&lt;br&gt;&lt;/li&gt;&lt;/ul&gt;" style="text;strokeColor=none;fillColor=none;html=1;whiteSpace=wrap;verticalAlign=middle;overflow=hidden;" parent="1" vertex="1">
          <mxGeometry x="-410" y="40" width="440" height="90" as="geometry" />
        </mxCell>
        <mxCell id="ILVK8j65E4kL8cAka4Vf-110" value="" style="shape=mxgraph.cisco.computers_and_peripherals.pc;sketch=0;html=1;pointerEvents=1;dashed=0;fillColor=#036897;strokeColor=#ffffff;strokeWidth=2;verticalLabelPosition=bottom;verticalAlign=top;align=center;outlineConnect=0;" parent="1" vertex="1">
          <mxGeometry x="20" y="870" width="78" height="70" as="geometry" />
        </mxCell>
        <mxCell id="ILVK8j65E4kL8cAka4Vf-111" value="" style="shape=mxgraph.cisco.computers_and_peripherals.pc;sketch=0;html=1;pointerEvents=1;dashed=0;fillColor=#036897;strokeColor=#ffffff;strokeWidth=2;verticalLabelPosition=bottom;verticalAlign=top;align=center;outlineConnect=0;" parent="1" vertex="1">
          <mxGeometry x="1520" y="880" width="78" height="70" as="geometry" />
        </mxCell>
        <mxCell id="ILVK8j65E4kL8cAka4Vf-112" value="" style="line;strokeWidth=2;html=1;" parent="1" vertex="1">
          <mxGeometry x="98" y="920" width="160" height="10" as="geometry" />
        </mxCell>
        <mxCell id="ILVK8j65E4kL8cAka4Vf-113" value="" style="line;strokeWidth=2;html=1;" parent="1" vertex="1">
          <mxGeometry x="1360" y="930" width="160" height="10" as="geometry" />
        </mxCell>
        <mxCell id="ILVK8j65E4kL8cAka4Vf-114" value="" style="line;strokeWidth=2;direction=south;html=1;" parent="1" vertex="1">
          <mxGeometry x="248" y="770" width="10" height="160" as="geometry" />
        </mxCell>
        <mxCell id="ILVK8j65E4kL8cAka4Vf-115" value="" style="line;strokeWidth=2;direction=south;html=1;" parent="1" vertex="1">
          <mxGeometry x="1350" y="780" width="10" height="160" as="geometry" />
        </mxCell>
        <mxCell id="ILVK8j65E4kL8cAka4Vf-116" value="&lt;h1&gt;pc 10&lt;/h1&gt;" style="text;html=1;align=center;verticalAlign=middle;whiteSpace=wrap;rounded=0;" parent="1" vertex="1">
          <mxGeometry x="-60" y="900" width="60" height="30" as="geometry" />
        </mxCell>
        <mxCell id="ILVK8j65E4kL8cAka4Vf-119" value="&lt;h1&gt;pc 11&lt;/h1&gt;" style="text;html=1;align=center;verticalAlign=middle;whiteSpace=wrap;rounded=0;" parent="1" vertex="1">
          <mxGeometry x="1610" y="70" width="60" height="30" as="geometry" />
        </mxCell>
        <mxCell id="ILVK8j65E4kL8cAka4Vf-120" value="&lt;h1&gt;pc 12&lt;/h1&gt;" style="text;html=1;align=center;verticalAlign=middle;whiteSpace=wrap;rounded=0;" parent="1" vertex="1">
          <mxGeometry x="1610" y="145" width="60" height="30" as="geometry" />
        </mxCell>
        <mxCell id="ILVK8j65E4kL8cAka4Vf-121" value="&lt;h1&gt;pc 13&lt;/h1&gt;" style="text;html=1;align=center;verticalAlign=middle;whiteSpace=wrap;rounded=0;" parent="1" vertex="1">
          <mxGeometry x="1610" y="260" width="60" height="30" as="geometry" />
        </mxCell>
        <mxCell id="ILVK8j65E4kL8cAka4Vf-122" value="&lt;h1&gt;pc 14&lt;/h1&gt;" style="text;html=1;align=center;verticalAlign=middle;whiteSpace=wrap;rounded=0;" parent="1" vertex="1">
          <mxGeometry x="1610" y="350" width="60" height="30" as="geometry" />
        </mxCell>
        <mxCell id="ILVK8j65E4kL8cAka4Vf-123" value="&lt;h1&gt;pc 15&lt;/h1&gt;" style="text;html=1;align=center;verticalAlign=middle;whiteSpace=wrap;rounded=0;" parent="1" vertex="1">
          <mxGeometry x="1610" y="430" width="60" height="30" as="geometry" />
        </mxCell>
        <mxCell id="ILVK8j65E4kL8cAka4Vf-124" value="&lt;h1&gt;pc 16&lt;/h1&gt;" style="text;html=1;align=center;verticalAlign=middle;whiteSpace=wrap;rounded=0;" parent="1" vertex="1">
          <mxGeometry x="1600" y="534" width="60" height="30" as="geometry" />
        </mxCell>
        <mxCell id="ILVK8j65E4kL8cAka4Vf-125" value="&lt;h1&gt;pc 17&lt;/h1&gt;" style="text;html=1;align=center;verticalAlign=middle;whiteSpace=wrap;rounded=0;" parent="1" vertex="1">
          <mxGeometry x="1600" y="640" width="60" height="30" as="geometry" />
        </mxCell>
        <mxCell id="ILVK8j65E4kL8cAka4Vf-126" value="&lt;h1&gt;pc 18&lt;/h1&gt;" style="text;html=1;align=center;verticalAlign=middle;whiteSpace=wrap;rounded=0;" parent="1" vertex="1">
          <mxGeometry x="1600" y="720" width="60" height="30" as="geometry" />
        </mxCell>
        <mxCell id="ILVK8j65E4kL8cAka4Vf-127" value="&lt;h2&gt;fa 0/8&lt;/h2&gt;" style="text;html=1;align=center;verticalAlign=middle;whiteSpace=wrap;rounded=0;" parent="1" vertex="1">
          <mxGeometry x="198" y="580" width="60" height="30" as="geometry" />
        </mxCell>
        <mxCell id="ILVK8j65E4kL8cAka4Vf-128" value="&lt;h2&gt;fa 0/2&lt;/h2&gt;" style="text;html=1;align=center;verticalAlign=middle;whiteSpace=wrap;rounded=0;" parent="1" vertex="1">
          <mxGeometry x="198" y="50" width="60" height="30" as="geometry" />
        </mxCell>
        <mxCell id="ILVK8j65E4kL8cAka4Vf-129" value="&lt;h2&gt;fa 0/3&lt;/h2&gt;" style="text;html=1;align=center;verticalAlign=middle;whiteSpace=wrap;rounded=0;" parent="1" vertex="1">
          <mxGeometry x="198" y="150" width="60" height="30" as="geometry" />
        </mxCell>
        <mxCell id="ILVK8j65E4kL8cAka4Vf-130" value="&lt;h2&gt;fa 0/4&lt;/h2&gt;" style="text;html=1;align=center;verticalAlign=middle;whiteSpace=wrap;rounded=0;" parent="1" vertex="1">
          <mxGeometry x="198" y="240" width="60" height="30" as="geometry" />
        </mxCell>
        <mxCell id="ILVK8j65E4kL8cAka4Vf-131" value="&lt;h2&gt;fa 0/5&lt;/h2&gt;" style="text;html=1;align=center;verticalAlign=middle;whiteSpace=wrap;rounded=0;" parent="1" vertex="1">
          <mxGeometry x="188" y="330" width="60" height="30" as="geometry" />
        </mxCell>
        <mxCell id="ILVK8j65E4kL8cAka4Vf-132" value="&lt;h2&gt;fa 0/6&lt;/h2&gt;" style="text;html=1;align=center;verticalAlign=middle;whiteSpace=wrap;rounded=0;" parent="1" vertex="1">
          <mxGeometry x="198" y="420" width="60" height="30" as="geometry" />
        </mxCell>
        <mxCell id="ILVK8j65E4kL8cAka4Vf-133" value="&lt;h2&gt;fa 0/7&lt;/h2&gt;" style="text;html=1;align=center;verticalAlign=middle;whiteSpace=wrap;rounded=0;" parent="1" vertex="1">
          <mxGeometry x="198" y="494" width="60" height="30" as="geometry" />
        </mxCell>
        <mxCell id="ILVK8j65E4kL8cAka4Vf-135" value="&lt;h2&gt;fa 0/9&lt;/h2&gt;" style="text;html=1;align=center;verticalAlign=middle;whiteSpace=wrap;rounded=0;" parent="1" vertex="1">
          <mxGeometry x="198" y="675" width="60" height="30" as="geometry" />
        </mxCell>
        <mxCell id="ILVK8j65E4kL8cAka4Vf-136" value="&lt;h2&gt;fa 0/10&lt;/h2&gt;" style="text;html=1;align=center;verticalAlign=middle;whiteSpace=wrap;rounded=0;" parent="1" vertex="1">
          <mxGeometry x="198" y="780" width="60" height="30" as="geometry" />
        </mxCell>
        <mxCell id="ILVK8j65E4kL8cAka4Vf-137" value="&lt;h2&gt;fa 0/11&lt;/h2&gt;" style="text;html=1;align=center;verticalAlign=middle;whiteSpace=wrap;rounded=0;" parent="1" vertex="1">
          <mxGeometry x="200" y="900" width="60" height="30" as="geometry" />
        </mxCell>
        <mxCell id="ILVK8j65E4kL8cAka4Vf-139" value="&lt;h1&gt;pc 19&lt;/h1&gt;" style="text;html=1;align=center;verticalAlign=middle;whiteSpace=wrap;rounded=0;" parent="1" vertex="1">
          <mxGeometry x="1600" y="800" width="60" height="30" as="geometry" />
        </mxCell>
        <mxCell id="ILVK8j65E4kL8cAka4Vf-140" value="&lt;h1&gt;pc 20&lt;/h1&gt;" style="text;html=1;align=center;verticalAlign=middle;whiteSpace=wrap;rounded=0;" parent="1" vertex="1">
          <mxGeometry x="1610" y="920" width="60" height="30" as="geometry" />
        </mxCell>
        <mxCell id="ILVK8j65E4kL8cAka4Vf-141" value="&lt;h2&gt;fa 0/2&lt;/h2&gt;" style="text;html=1;align=center;verticalAlign=middle;whiteSpace=wrap;rounded=0;" parent="1" vertex="1">
          <mxGeometry x="1340" y="70" width="60" height="30" as="geometry" />
        </mxCell>
        <mxCell id="ILVK8j65E4kL8cAka4Vf-143" value="&lt;h2&gt;fa 0/3&lt;/h2&gt;" style="text;html=1;align=center;verticalAlign=middle;whiteSpace=wrap;rounded=0;" parent="1" vertex="1">
          <mxGeometry x="1360" y="155" width="60" height="30" as="geometry" />
        </mxCell>
        <mxCell id="ILVK8j65E4kL8cAka4Vf-144" value="&lt;h2&gt;fa 0/4&lt;/h2&gt;" style="text;html=1;align=center;verticalAlign=middle;whiteSpace=wrap;rounded=0;" parent="1" vertex="1">
          <mxGeometry x="1350" y="250" width="60" height="30" as="geometry" />
        </mxCell>
        <mxCell id="ILVK8j65E4kL8cAka4Vf-145" value="&lt;h2&gt;fa 0/5&lt;/h2&gt;" style="text;html=1;align=center;verticalAlign=middle;whiteSpace=wrap;rounded=0;" parent="1" vertex="1">
          <mxGeometry x="1360" y="340" width="60" height="30" as="geometry" />
        </mxCell>
        <mxCell id="ILVK8j65E4kL8cAka4Vf-146" value="&lt;h2&gt;fa 0/6&lt;/h2&gt;" style="text;html=1;align=center;verticalAlign=middle;whiteSpace=wrap;rounded=0;" parent="1" vertex="1">
          <mxGeometry x="1360" y="430" width="60" height="30" as="geometry" />
        </mxCell>
        <mxCell id="ILVK8j65E4kL8cAka4Vf-147" value="&lt;h2&gt;fa 0/7&lt;/h2&gt;" style="text;html=1;align=center;verticalAlign=middle;whiteSpace=wrap;rounded=0;" parent="1" vertex="1">
          <mxGeometry x="1360" y="524" width="60" height="30" as="geometry" />
        </mxCell>
        <mxCell id="ILVK8j65E4kL8cAka4Vf-149" value="&lt;h2&gt;fa&amp;nbsp; 0/8&lt;/h2&gt;" style="text;html=1;align=center;verticalAlign=middle;whiteSpace=wrap;rounded=0;" parent="1" vertex="1">
          <mxGeometry x="1360" y="610" width="60" height="30" as="geometry" />
        </mxCell>
        <mxCell id="ILVK8j65E4kL8cAka4Vf-150" value="&lt;h2&gt;fa 0/9&lt;/h2&gt;" style="text;html=1;align=center;verticalAlign=middle;whiteSpace=wrap;rounded=0;" parent="1" vertex="1">
          <mxGeometry x="1360" y="705" width="60" height="30" as="geometry" />
        </mxCell>
        <mxCell id="ILVK8j65E4kL8cAka4Vf-151" value="&lt;h2&gt;fa 0/10&lt;/h2&gt;" style="text;html=1;align=center;verticalAlign=middle;whiteSpace=wrap;rounded=0;" parent="1" vertex="1">
          <mxGeometry x="1360" y="790" width="60" height="30" as="geometry" />
        </mxCell>
        <mxCell id="ILVK8j65E4kL8cAka4Vf-152" value="&lt;h2&gt;fa 0/11&lt;/h2&gt;" style="text;html=1;align=center;verticalAlign=middle;whiteSpace=wrap;rounded=0;" parent="1" vertex="1">
          <mxGeometry x="1360" y="900" width="60" height="30" as="geometry" />
        </mxCell>
        <mxCell id="ILVK8j65E4kL8cAka4Vf-153" value="&lt;ul&gt;&lt;li&gt;&lt;font style=&quot;font-size: 16px;&quot;&gt;192.16.0.12/24&lt;/font&gt;&lt;/li&gt;&lt;li&gt;&lt;span style=&quot;font-size: 16px;&quot;&gt;FE80::206:2AFF:FE41:1CE6&lt;/span&gt;&lt;/li&gt;&lt;li&gt;&lt;font style=&quot;font-size: 16px;&quot;&gt;2001:DB8:ACAD:1:206:2AFF:FE41:1CE6&lt;/font&gt;&lt;br&gt;&lt;/li&gt;&lt;/ul&gt;" style="text;strokeColor=none;fillColor=none;html=1;whiteSpace=wrap;verticalAlign=middle;overflow=hidden;" parent="1" vertex="1">
          <mxGeometry x="-410" y="125" width="470" height="80" as="geometry" />
        </mxCell>
        <mxCell id="ILVK8j65E4kL8cAka4Vf-154" value="&lt;ul&gt;&lt;li&gt;&lt;font style=&quot;font-size: 16px;&quot;&gt;192.16.0.13/24&lt;/font&gt;&lt;/li&gt;&lt;li&gt;&lt;span style=&quot;font-size: 16px;&quot;&gt;FE80::2D0:58FF:FE51:A45B&lt;/span&gt;&lt;/li&gt;&lt;li&gt;&lt;font style=&quot;font-size: 16px;&quot;&gt;2001:DB8:ACAD:1:2D0:58FF:FE51:A45B&lt;/font&gt;&lt;br&gt;&lt;/li&gt;&lt;/ul&gt;" style="text;strokeColor=none;fillColor=none;html=1;whiteSpace=wrap;verticalAlign=middle;overflow=hidden;" parent="1" vertex="1">
          <mxGeometry x="-410" y="215" width="480" height="80" as="geometry" />
        </mxCell>
        <mxCell id="ILVK8j65E4kL8cAka4Vf-155" value="&lt;ul&gt;&lt;li&gt;&lt;span style=&quot;font-size: 16px;&quot;&gt;192.16.0.14/24&lt;/span&gt;&lt;/li&gt;&lt;li&gt;&lt;span style=&quot;font-size: 16px;&quot;&gt;FE80::260:47FF:FE50:6D69&lt;/span&gt;&lt;/li&gt;&lt;li&gt;&lt;font style=&quot;font-size: 16px;&quot;&gt;2001:DB8:ACAD:1:260:47FF:FE50:6D69&lt;/font&gt;&lt;br&gt;&lt;/li&gt;&lt;/ul&gt;" style="text;strokeColor=none;fillColor=none;html=1;whiteSpace=wrap;verticalAlign=middle;overflow=hidden;" parent="1" vertex="1">
          <mxGeometry x="-410" y="300" width="480" height="80" as="geometry" />
        </mxCell>
        <mxCell id="ILVK8j65E4kL8cAka4Vf-156" value="&lt;ul&gt;&lt;li&gt;&lt;span style=&quot;font-size: 16px;&quot;&gt;192.16.0.15/24&lt;/span&gt;&lt;/li&gt;&lt;li&gt;&lt;span style=&quot;font-size: 16px;&quot;&gt;FE80::20C:CFFF:FE09:7D0&lt;/span&gt;&lt;/li&gt;&lt;li&gt;&lt;font style=&quot;font-size: 16px;&quot;&gt;2001:DB8:ACAD:1:20C:CFFF:FE09:7D0&lt;/font&gt;&lt;br&gt;&lt;/li&gt;&lt;/ul&gt;" style="text;strokeColor=none;fillColor=none;html=1;whiteSpace=wrap;verticalAlign=middle;overflow=hidden;" parent="1" vertex="1">
          <mxGeometry x="-410" y="380" width="480" height="80" as="geometry" />
        </mxCell>
        <mxCell id="ILVK8j65E4kL8cAka4Vf-157" value="&lt;ul&gt;&lt;li&gt;&lt;span style=&quot;font-size: 16px;&quot;&gt;192.16.0.16/24&lt;/span&gt;&lt;/li&gt;&lt;li&gt;&lt;span style=&quot;font-size: 16px;&quot;&gt;FE80::201:96FF:FE8D:368C&lt;/span&gt;&lt;/li&gt;&lt;li&gt;&lt;font style=&quot;font-size: 16px;&quot;&gt;2001:DB8:ACAD:1:201:96FF:FE8D:368C&lt;/font&gt;&lt;br&gt;&lt;/li&gt;&lt;/ul&gt;" style="text;strokeColor=none;fillColor=none;html=1;whiteSpace=wrap;verticalAlign=middle;overflow=hidden;" parent="1" vertex="1">
          <mxGeometry x="-410" y="465" width="470" height="80" as="geometry" />
        </mxCell>
        <mxCell id="ILVK8j65E4kL8cAka4Vf-158" value="&lt;ul&gt;&lt;li&gt;&lt;span style=&quot;font-size: 16px;&quot;&gt;192.16.0.17/24&lt;/span&gt;&lt;/li&gt;&lt;li&gt;&lt;span style=&quot;font-size: 16px;&quot;&gt;FE80::201:97FF:FEB3:55D0&lt;/span&gt;&lt;/li&gt;&lt;li&gt;&lt;font style=&quot;font-size: 16px;&quot;&gt;2001:DB8:ACAD:1:201:97FF:FEB3:55D0&lt;/font&gt;&lt;br&gt;&lt;/li&gt;&lt;/ul&gt;" style="text;strokeColor=none;fillColor=none;html=1;whiteSpace=wrap;verticalAlign=middle;overflow=hidden;" parent="1" vertex="1">
          <mxGeometry x="-410" y="560" width="470" height="80" as="geometry" />
        </mxCell>
        <mxCell id="ILVK8j65E4kL8cAka4Vf-159" value="&lt;ul&gt;&lt;li&gt;&lt;span style=&quot;font-size: 16px;&quot;&gt;192.16.0.18/24&lt;/span&gt;&lt;/li&gt;&lt;li&gt;&lt;span style=&quot;font-size: 16px;&quot;&gt;FE80::260:70FF:FEBC:B520&lt;/span&gt;&lt;/li&gt;&lt;li&gt;&lt;font style=&quot;font-size: 16px;&quot;&gt;2001:DB8:ACAD:1:260:70FF:FEBC:B520&lt;/font&gt;&lt;br&gt;&lt;/li&gt;&lt;/ul&gt;" style="text;strokeColor=none;fillColor=none;html=1;whiteSpace=wrap;verticalAlign=middle;overflow=hidden;" parent="1" vertex="1">
          <mxGeometry x="-410" y="655" width="480" height="80" as="geometry" />
        </mxCell>
        <mxCell id="ILVK8j65E4kL8cAka4Vf-160" value="&lt;ul&gt;&lt;li&gt;&lt;span style=&quot;font-size: 16px;&quot;&gt;192.16.0.19/24&lt;/span&gt;&lt;/li&gt;&lt;li&gt;&lt;font style=&quot;font-size: 16px;&quot;&gt;FE80::209:7CFF:FEEC:3764&lt;/font&gt;&lt;/li&gt;&lt;li&gt;&lt;font style=&quot;font-size: 16px;&quot;&gt;2001:DB8:ACAD:1:209:7CFF:FEEC:3764&lt;/font&gt;&lt;br&gt;&lt;/li&gt;&lt;/ul&gt;" style="text;strokeColor=none;fillColor=none;html=1;whiteSpace=wrap;verticalAlign=middle;overflow=hidden;" parent="1" vertex="1">
          <mxGeometry x="-410" y="755" width="480" height="80" as="geometry" />
        </mxCell>
        <mxCell id="ILVK8j65E4kL8cAka4Vf-161" value="&lt;ul&gt;&lt;li&gt;&lt;span style=&quot;font-size: 16px;&quot;&gt;192.16.0.20/24&lt;/span&gt;&lt;/li&gt;&lt;li&gt;&lt;span style=&quot;font-size: 16px;&quot;&gt;FE80::210:11FF:FEAA:7DB4&lt;/span&gt;&lt;/li&gt;&lt;li&gt;&lt;font style=&quot;font-size: 16px;&quot;&gt;2001:DB8:ACAD:1:210:11FF:FEAA:7DB4&lt;/font&gt;&lt;br&gt;&lt;/li&gt;&lt;/ul&gt;" style="text;strokeColor=none;fillColor=none;html=1;whiteSpace=wrap;verticalAlign=middle;overflow=hidden;" parent="1" vertex="1">
          <mxGeometry x="-410" y="870" width="490" height="80" as="geometry" />
        </mxCell>
        <mxCell id="ILVK8j65E4kL8cAka4Vf-162" value="&lt;ul&gt;&lt;li&gt;&lt;span style=&quot;font-size: 16px;&quot;&gt;10.0.0.4/8&lt;/span&gt;&lt;/li&gt;&lt;li&gt;&lt;span style=&quot;font-size: 16px;&quot;&gt;FE80::202:17FF:FE28:6C37&lt;/span&gt;&lt;/li&gt;&lt;li&gt;&lt;font style=&quot;font-size: 16px;&quot;&gt;2001:DB8:ACAD:2:202:17FF:FE28:6C37&lt;/font&gt;&lt;br&gt;&lt;/li&gt;&lt;/ul&gt;" style="text;strokeColor=none;fillColor=none;html=1;whiteSpace=wrap;verticalAlign=middle;overflow=hidden;" parent="1" vertex="1">
          <mxGeometry x="1730" y="45" width="380" height="80" as="geometry" />
        </mxCell>
        <mxCell id="ILVK8j65E4kL8cAka4Vf-163" value="&lt;ul&gt;&lt;li&gt;&lt;span style=&quot;font-size: 16px;&quot;&gt;10.0.0.5/8&lt;/span&gt;&lt;/li&gt;&lt;li&gt;&lt;span style=&quot;font-size: 16px;&quot;&gt;FE80::201:97FF:FE10:237A&lt;/span&gt;&lt;/li&gt;&lt;li&gt;&lt;font style=&quot;font-size: 16px;&quot;&gt;2001:DB8:ACAD:2:201:97FF:FE10:237A&lt;/font&gt;&lt;br&gt;&lt;/li&gt;&lt;/ul&gt;" style="text;strokeColor=none;fillColor=none;html=1;whiteSpace=wrap;verticalAlign=middle;overflow=hidden;" parent="1" vertex="1">
          <mxGeometry x="1730" y="130" width="420" height="80" as="geometry" />
        </mxCell>
        <mxCell id="ILVK8j65E4kL8cAka4Vf-164" value="&lt;ul&gt;&lt;li&gt;&lt;span style=&quot;font-size: 16px;&quot;&gt;10.0.0.6/8&lt;/span&gt;&lt;/li&gt;&lt;li&gt;&lt;span style=&quot;font-size: 16px;&quot;&gt;FE80::204:9AFF:FE6B:1C22&lt;/span&gt;&lt;/li&gt;&lt;li&gt;&lt;font style=&quot;font-size: 16px;&quot;&gt;2001:DB8:ACAD:2:204:9AFF:FE6B:1C22&lt;/font&gt;&lt;br&gt;&lt;/li&gt;&lt;/ul&gt;" style="text;strokeColor=none;fillColor=none;html=1;whiteSpace=wrap;verticalAlign=middle;overflow=hidden;" parent="1" vertex="1">
          <mxGeometry x="1730" y="225" width="750" height="80" as="geometry" />
        </mxCell>
        <mxCell id="ILVK8j65E4kL8cAka4Vf-165" value="&lt;ul&gt;&lt;li&gt;&lt;span style=&quot;font-size: 16px;&quot;&gt;10.0.0.7/8&lt;/span&gt;&lt;/li&gt;&lt;li&gt;&lt;span style=&quot;font-size: 16px;&quot;&gt;FE80::20C:85FF:FE54:405E&lt;/span&gt;&lt;/li&gt;&lt;li&gt;&lt;font style=&quot;font-size: 16px;&quot;&gt;2001:DB8:ACAD:2:20C:85FF:FE54:405E&lt;/font&gt;&lt;br&gt;&lt;/li&gt;&lt;/ul&gt;" style="text;strokeColor=none;fillColor=none;html=1;whiteSpace=wrap;verticalAlign=middle;overflow=hidden;" parent="1" vertex="1">
          <mxGeometry x="1730" y="320" width="520" height="80" as="geometry" />
        </mxCell>
        <mxCell id="ILVK8j65E4kL8cAka4Vf-166" value="&lt;ul&gt;&lt;li&gt;&lt;span style=&quot;font-size: 16px;&quot;&gt;10.0.0.8/8&lt;/span&gt;&lt;/li&gt;&lt;li&gt;&lt;span style=&quot;font-size: 16px;&quot;&gt;FE80::210:11FF:FE45:C450&lt;/span&gt;&lt;/li&gt;&lt;li&gt;&lt;font style=&quot;font-size: 17px;&quot;&gt;2001:DB8:ACAD:2:210:11FF:FE45:C450&lt;/font&gt;&lt;br&gt;&lt;/li&gt;&lt;/ul&gt;" style="text;strokeColor=none;fillColor=none;html=1;whiteSpace=wrap;verticalAlign=middle;overflow=hidden;" parent="1" vertex="1">
          <mxGeometry x="1730" y="400" width="610" height="80" as="geometry" />
        </mxCell>
        <mxCell id="ILVK8j65E4kL8cAka4Vf-167" value="&lt;ul&gt;&lt;li&gt;&lt;span style=&quot;font-size: 16px;&quot;&gt;10.0.0.9/8&lt;/span&gt;&lt;/li&gt;&lt;li&gt;&lt;span style=&quot;font-size: 16px;&quot;&gt;FE80::2D0:BCFF:FE9E:514D&lt;/span&gt;&lt;/li&gt;&lt;li&gt;&lt;font style=&quot;font-size: 16px;&quot;&gt;2001:DB8:ACAD:2:2D0:BCFF:FE9E:514D&lt;/font&gt;&lt;br&gt;&lt;/li&gt;&lt;/ul&gt;" style="text;strokeColor=none;fillColor=none;html=1;whiteSpace=wrap;verticalAlign=middle;overflow=hidden;" parent="1" vertex="1">
          <mxGeometry x="1730" y="494" width="610" height="80" as="geometry" />
        </mxCell>
        <mxCell id="ILVK8j65E4kL8cAka4Vf-168" value="&lt;ul&gt;&lt;li&gt;&lt;span style=&quot;font-size: 16px;&quot;&gt;10.0.0.10/8&lt;/span&gt;&lt;/li&gt;&lt;li&gt;&lt;span style=&quot;font-size: 16px;&quot;&gt;FE80::210:11FF:FEDA:4916&lt;/span&gt;&lt;/li&gt;&lt;li&gt;&lt;font style=&quot;font-size: 16px;&quot;&gt;2001:DB8:ACAD:2:210:11FF:FEDA:4916&lt;/font&gt;&lt;br&gt;&lt;/li&gt;&lt;/ul&gt;" style="text;strokeColor=none;fillColor=none;html=1;whiteSpace=wrap;verticalAlign=middle;overflow=hidden;" parent="1" vertex="1">
          <mxGeometry x="1730" y="595" width="590" height="80" as="geometry" />
        </mxCell>
        <mxCell id="ILVK8j65E4kL8cAka4Vf-169" value="&lt;ul&gt;&lt;li&gt;&lt;span style=&quot;font-size: 16px;&quot;&gt;10.0.0.11/8&lt;/span&gt;&lt;/li&gt;&lt;li&gt;&lt;span style=&quot;background-color: initial;&quot;&gt;&lt;span style=&quot;font-size: 16px;&quot;&gt;FE80::202:16FF:FEE1:E0B1&lt;/span&gt;&lt;/span&gt;&lt;/li&gt;&lt;li&gt;&lt;font style=&quot;font-size: 16px;&quot;&gt;2001:DB8:ACAD:2:202:16FF:FEE1:E0B1&lt;/font&gt;&lt;br&gt;&lt;/li&gt;&lt;/ul&gt;" style="text;strokeColor=none;fillColor=none;html=1;whiteSpace=wrap;verticalAlign=middle;overflow=hidden;" parent="1" vertex="1">
          <mxGeometry x="1730" y="690" width="680" height="80" as="geometry" />
        </mxCell>
        <mxCell id="ILVK8j65E4kL8cAka4Vf-170" value="&lt;ul&gt;&lt;li&gt;&lt;span style=&quot;font-size: 16px;&quot;&gt;10.0.0.12/8&lt;/span&gt;&lt;/li&gt;&lt;li&gt;&lt;span style=&quot;font-size: 16px;&quot;&gt;FE80::20C:85FF:FEEE:D16E&lt;/span&gt;&lt;/li&gt;&lt;li&gt;&lt;font style=&quot;font-size: 16px;&quot;&gt;2001:DB8:ACAD:2:20C:85FF:FEEE:D16E&lt;/font&gt;&lt;br&gt;&lt;/li&gt;&lt;/ul&gt;" style="text;strokeColor=none;fillColor=none;html=1;whiteSpace=wrap;verticalAlign=middle;overflow=hidden;" parent="1" vertex="1">
          <mxGeometry x="1730" y="780" width="730" height="80" as="geometry" />
        </mxCell>
        <mxCell id="ILVK8j65E4kL8cAka4Vf-171" value="&lt;ul&gt;&lt;li&gt;&lt;span style=&quot;font-size: 16px;&quot;&gt;10.0.0.13/8&lt;/span&gt;&lt;/li&gt;&lt;li&gt;&lt;span style=&quot;font-size: 16px;&quot;&gt;FE80::250:FFF:FE64:898E&lt;/span&gt;&lt;/li&gt;&lt;li&gt;&lt;font style=&quot;font-size: 16px;&quot;&gt;2001:DB8:ACAD:2:250:FFF:FE64:898E&lt;/font&gt;&lt;br&gt;&lt;/li&gt;&lt;/ul&gt;" style="text;strokeColor=none;fillColor=none;html=1;whiteSpace=wrap;verticalAlign=middle;overflow=hidden;" parent="1" vertex="1">
          <mxGeometry x="1730" y="885" width="590" height="80" as="geometry" />
        </mxCell>
        <mxCell id="ILVK8j65E4kL8cAka4Vf-172" value="&lt;ul&gt;&lt;li&gt;&lt;span style=&quot;font-size: 16px;&quot;&gt;192.16.0.254/24&lt;/span&gt;&lt;/li&gt;&lt;li&gt;&lt;font style=&quot;font-size: 16px;&quot;&gt;FE80::201:96FF:FE0D:A00E&lt;/font&gt;&lt;/li&gt;&lt;/ul&gt;" style="text;strokeColor=none;fillColor=none;html=1;whiteSpace=wrap;verticalAlign=middle;overflow=hidden;" parent="1" vertex="1">
          <mxGeometry x="490" y="532" width="270" height="80" as="geometry" />
        </mxCell>
        <mxCell id="ILVK8j65E4kL8cAka4Vf-173" value="&lt;ul&gt;&lt;li&gt;&lt;span style=&quot;font-size: 16px;&quot;&gt;10.0.0.254/24&lt;/span&gt;&lt;/li&gt;&lt;li&gt;&lt;font style=&quot;font-size: 16px;&quot;&gt;FE80::2E0:F7FF:FE7A:61E7&lt;/font&gt;&lt;br&gt;&lt;/li&gt;&lt;/ul&gt;" style="text;strokeColor=none;fillColor=none;html=1;whiteSpace=wrap;verticalAlign=middle;overflow=hidden;" parent="1" vertex="1">
          <mxGeometry x="1045" y="540" width="245" height="80" as="geometry" />
        </mxCell>
        <mxCell id="ILVK8j65E4kL8cAka4Vf-174" value="&lt;ul&gt;&lt;li&gt;&lt;span style=&quot;font-size: 16px;&quot;&gt;192.16.0.1/24&lt;/span&gt;&lt;/li&gt;&lt;li&gt;&lt;font style=&quot;font-size: 16px;&quot;&gt;2001:DB8:ACAD:1::1&lt;/font&gt;&lt;br&gt;&lt;/li&gt;&lt;li&gt;&lt;font style=&quot;font-size: 17px;&quot;&gt;FE80::2E0:F7FF:FE4A:9501&lt;/font&gt;&lt;br&gt;&lt;/li&gt;&lt;/ul&gt;" style="text;strokeColor=none;fillColor=none;html=1;whiteSpace=wrap;verticalAlign=middle;overflow=hidden;" parent="1" vertex="1">
          <mxGeometry x="570" y="340" width="260" height="80" as="geometry" />
        </mxCell>
        <mxCell id="ILVK8j65E4kL8cAka4Vf-175" value="&lt;ul&gt;&lt;li&gt;&lt;span style=&quot;font-size: 16px;&quot;&gt;10.0.0.1/24&lt;/span&gt;&lt;/li&gt;&lt;li&gt;&lt;font style=&quot;font-size: 16px;&quot;&gt;2001:DB8:ACAD:2::1&lt;br&gt;&lt;/font&gt;&lt;/li&gt;&lt;li&gt;&lt;font style=&quot;font-size: 16px;&quot;&gt;FE80::2E0:F7FF:FE4A:9502&lt;/font&gt;&lt;br&gt;&lt;/li&gt;&lt;/ul&gt;" style="text;strokeColor=none;fillColor=none;html=1;whiteSpace=wrap;verticalAlign=middle;overflow=hidden;" parent="1" vertex="1">
          <mxGeometry x="870" y="340" width="330" height="80" as="geometry" />
        </mxCell>
      </root>
    </mxGraphModel>
  </diagram>
</mxfile>
